<?xml version="1.0" encoding="iso-8859-1"?>
<!-- Generator: Adobe Illustrator 18.0.0, SVG Export Plug-In . SVG Version: 6.00 Build 0)  -->
<!DOCTYPE svg PUBLIC "-//W3C//DTD SVG 1.1//EN" "http://www.w3.org/Graphics/SVG/1.1/DTD/svg11.dtd">
<svg version="1.1" id="Capa_1" xmlns="http://www.w3.org/2000/svg" xmlns:xlink="http://www.w3.org/1999/xlink" x="0px" y="0px"
	 viewBox="0 0 208.752 208.752" style="enable-background:new 0 0 208.752 208.752;" xml:space="preserve">
<g>
	<path d="M192.042,116.167c1.19-6.058,1.82-12.314,1.82-18.715c0-53.448-43.483-96.931-96.931-96.931S0,44.005,0,97.453
		c0,53.448,43.483,96.931,96.931,96.931c7.004,0,13.834-0.753,20.42-2.171c9.687,9.876,23.167,16.018,38.06,16.018
		c29.413,0,53.342-23.929,53.342-53.342C208.752,139.651,202.32,125.897,192.042,116.167z M155.41,196.23
		c-22.796,0-41.342-18.546-41.342-41.342c0-22.796,18.546-41.342,41.342-41.342s41.342,18.546,41.342,41.342
		C196.752,177.684,178.206,196.23,155.41,196.23z M12.236,103.453h30.216c0.587,11.055,2.748,21.815,6.348,32H21.009
		C16.109,125.702,13.038,114.888,12.236,103.453z M21.009,59.453h28c-3.716,10.287-5.96,21.073-6.558,32H12.236
		C13.038,80.017,16.109,69.203,21.009,59.453z M96.977,14.32c12.374,8.88,22.409,20.23,29.628,33.132H67.67
		C74.923,34.617,84.881,23.209,96.977,14.32z M132.324,59.453c4.025,10.095,6.455,20.88,7.089,32H54.46
		c0.673-10.983,3.217-21.802,7.385-32H132.324z M181.626,91.453h-30.204c-0.563-11.048-2.701-21.808-6.279-32h27.709
		C177.752,69.203,180.823,80.017,181.626,91.453z M54.46,103.453h84.932c-0.012,0.19-0.031,0.379-0.044,0.569
		c-15.372,4.865-27.742,16.523-33.598,31.431H61.631C57.579,125.365,55.121,114.581,54.46,103.453z M102.598,147.453
		c-0.341,2.432-0.529,4.911-0.529,7.436c0,6.651,1.234,13.016,3.468,18.893c-2.634,2.407-5.391,4.69-8.278,6.815
		c-12.47-8.864-22.585-20.217-29.867-33.144H102.598z M169.514,103.453h12.112c-0.112,1.592-0.268,3.171-0.467,4.739
		C177.516,106.174,173.612,104.578,169.514,103.453z M165.524,47.453h-25.389c-5.901-12.153-13.954-23.231-23.868-32.684
		C136.353,19.466,153.716,31.298,165.524,47.453z M78.028,14.669c-9.834,9.502-17.925,20.652-23.905,32.784H28.337
		C40.23,31.182,57.758,19.296,78.028,14.669z M28.337,147.453h25.505c5.959,12.199,14.094,23.306,24.106,32.766
		C57.711,175.578,40.214,163.702,28.337,147.453z"/>
	<path d="M161.626,155.831c2.105-1.777,3.472-4.402,3.472-7.374c0-5.35-4.337-9.688-9.688-9.688s-9.688,4.338-9.688,9.688
		c0,2.971,1.367,5.597,3.472,7.374l-4.807,15.177h22.045L161.626,155.831z"/>
</g>
<g>
</g>
<g>
</g>
<g>
</g>
<g>
</g>
<g>
</g>
<g>
</g>
<g>
</g>
<g>
</g>
<g>
</g>
<g>
</g>
<g>
</g>
<g>
</g>
<g>
</g>
<g>
</g>
<g>
</g>
</svg>
